<svg width="117" height="85" viewBox="0 0 117 85" fill="none" xmlns="http://www.w3.org/2000/svg">
<path d="M26.4001 0.359863C32.7147 0.359863 37.9201 1.81053 42.0161 4.71187C46.1121 7.6132 49.0987 11.4532 50.9761 16.2319C53.0241 20.8399 54.0481 26.0452 54.0481 31.8479C54.0481 39.5279 52.3414 46.9519 48.9281 54.1199C45.6854 61.1172 41.3334 67.3465 35.8721 72.8079C30.5814 78.0985 24.7787 82.1092 18.4641 84.8399L0.800049 71.7839C5.57872 69.9065 9.93072 67.5172 13.856 64.6159C17.952 61.7145 21.4507 58.5572 24.3521 55.1439C27.4241 51.7305 29.7281 48.2319 31.2641 44.6479L29.9841 43.8799C29.1307 44.5625 28.0214 45.0745 26.6561 45.4159C25.2907 45.7572 23.4987 45.9279 21.2801 45.9279C18.2081 45.9279 15.0507 45.1599 11.808 43.6239C8.73605 42.0879 6.09072 39.7839 3.87205 36.7119C1.82405 33.6399 0.800049 29.7145 0.800049 24.9359C0.800049 19.4745 1.99472 14.9519 4.38405 11.3679C6.77338 7.78387 9.93072 5.0532 13.856 3.17587C17.7814 1.29853 21.9627 0.359863 26.4001 0.359863ZM89.12 0.359863C95.4347 0.359863 100.64 1.81053 104.736 4.71187C108.832 7.6132 111.819 11.4532 113.696 16.2319C115.744 20.8399 116.768 26.0452 116.768 31.8479C116.768 39.5279 115.061 46.9519 111.648 54.1199C108.405 61.1172 104.053 67.3465 98.592 72.8079C93.3014 78.0985 87.4987 82.1092 81.1841 84.8399L63.5201 71.7839C68.2987 69.9065 72.6507 67.5172 76.576 64.6159C80.6721 61.7145 84.1707 58.5572 87.0721 55.1439C90.1441 51.7305 92.4481 48.2319 93.9841 44.6479L92.704 43.8799C91.8507 44.5625 90.7414 45.0745 89.3761 45.4159C88.0107 45.7572 86.2187 45.9279 84.0001 45.9279C80.9281 45.9279 77.7707 45.1599 74.5281 43.6239C71.4561 42.0879 68.8107 39.7839 66.592 36.7119C64.544 33.6399 63.5201 29.7145 63.5201 24.9359C63.5201 19.4745 64.7147 14.9519 67.104 11.3679C69.4934 7.78387 72.6507 5.0532 76.576 3.17587C80.5014 1.29853 84.6827 0.359863 89.12 0.359863Z" fill="#FE5A14"/>
</svg>
