<svg width="59" height="43" viewBox="0 0 59 43" fill="none" xmlns="http://www.w3.org/2000/svg">
<path d="M13.2 0.679688C16.3573 0.679688 18.96 1.40502 21.008 2.85569C23.056 4.30636 24.5493 6.22636 25.488 8.61569C26.512 10.9197 27.024 13.5224 27.024 16.4237C27.024 20.2637 26.1707 23.9757 24.464 27.5597C22.8427 31.0584 20.6667 34.173 17.936 36.9037C15.2907 39.549 12.3893 41.5544 9.23199 42.9197L0.399994 36.3917C2.78933 35.453 4.96533 34.2584 6.92799 32.8077C8.97599 31.357 10.7253 29.7784 12.176 28.0717C13.712 26.365 14.864 24.6157 15.632 22.8237L14.992 22.4397C14.5653 22.781 14.0107 23.037 13.328 23.2077C12.6453 23.3784 11.7493 23.4637 10.64 23.4637C9.10399 23.4637 7.52533 23.0797 5.90399 22.3117C4.36799 21.5437 3.04533 20.3917 1.93599 18.8557C0.911994 17.3197 0.399994 15.357 0.399994 12.9677C0.399994 10.237 0.997327 7.97569 2.19199 6.18369C3.38666 4.39169 4.96533 3.02636 6.92799 2.08769C8.89066 1.14902 10.9813 0.679688 13.2 0.679688ZM44.56 0.679688C47.7173 0.679688 50.32 1.40502 52.368 2.85569C54.416 4.30636 55.9093 6.22636 56.848 8.61569C57.872 10.9197 58.384 13.5224 58.384 16.4237C58.384 20.2637 57.5307 23.9757 55.824 27.5597C54.2027 31.0584 52.0267 34.173 49.296 36.9037C46.6507 39.549 43.7493 41.5544 40.592 42.9197L31.76 36.3917C34.1493 35.453 36.3253 34.2584 38.288 32.8077C40.336 31.357 42.0853 29.7784 43.536 28.0717C45.072 26.365 46.224 24.6157 46.992 22.8237L46.352 22.4397C45.9253 22.781 45.3707 23.037 44.688 23.2077C44.0053 23.3784 43.1093 23.4637 42 23.4637C40.464 23.4637 38.8853 23.0797 37.264 22.3117C35.728 21.5437 34.4053 20.3917 33.296 18.8557C32.272 17.3197 31.76 15.357 31.76 12.9677C31.76 10.237 32.3573 7.97569 33.552 6.18369C34.7467 4.39169 36.3253 3.02636 38.288 2.08769C40.2507 1.14902 42.3413 0.679688 44.56 0.679688Z" fill="#FE5A14"/>
</svg>
